<svg width="37" height="37" viewBox="0 0 37 37" fill="none" xmlns="http://www.w3.org/2000/svg">
<rect x="0.330078" y="0.613037" width="36" height="36" fill="white"/>
<path d="M29.3689 15.1904C29.7934 8.6152 21.2811 9.15236 17.8571 11.3652C13.6066 17.5296 17.679 20.5643 17.8562 22.1449C18.0333 23.7255 28.8383 23.4094 29.3689 15.1904Z" fill="#FFE700"/>
<mask id="mask0_17515_16497" style="mask-type:luminance" maskUnits="userSpaceOnUse" x="5" y="5" width="27" height="27">
<path d="M31.3301 5.61304H5.33008V31.613H31.3301V5.61304Z" fill="white"/>
<path d="M12.8137 15.3681C12.5182 15.3222 12.2363 15.5579 12.2363 15.8708C12.2363 16.152 12.4644 16.3787 12.7441 16.3787C13.0244 16.3787 13.252 16.1512 13.252 15.8708C13.252 15.6144 13.061 15.4016 12.8137 15.3681Z" fill="white"/>
</mask>
<g mask="url(#mask0_17515_16497)">
<mask id="mask1_17515_16497" style="mask-type:luminance" maskUnits="userSpaceOnUse" x="5" y="5" width="27" height="27">
<path d="M5.33008 5.61304H31.3301V31.613H5.33008V5.61304Z" fill="white"/>
</mask>
<g mask="url(#mask1_17515_16497)">
<path d="M12.8137 15.3681C12.5182 15.3222 12.2363 15.5579 12.2363 15.8708C12.2363 16.152 12.4644 16.3787 12.7441 16.3787C13.0244 16.3787 13.252 16.1512 13.252 15.8708C13.252 15.6144 13.061 15.4016 12.8137 15.3681Z" fill="black"/>
<path d="M11.6227 8.84732L12.9766 8.17041L11.6227 7.4935L10.9453 6.12088L10.2684 7.4935L8.91406 8.17041L10.2684 8.84732L10.9453 10.2017L11.6227 8.84732Z" stroke="black" stroke-width="0.8" stroke-linecap="round" stroke-linejoin="round"/>
<path d="M28.5645 9.89355L30.8496 9.13184L28.5645 8.37012L27.8027 6.12102L27.041 8.37012L24.7559 9.13184L27.041 9.89355L27.8027 12.1787L28.5645 9.89355Z" stroke="black" stroke-width="0.8" stroke-linecap="round" stroke-linejoin="round"/>
<path d="M18.3631 10.7932C19.0471 10.7948 19.7154 10.8648 20.3613 10.9959C23.2518 11.5824 25.6964 13.3968 27.1274 15.8709C27.9917 17.3643 28.4863 19.099 28.4863 20.949C28.4863 22.7989 27.9917 24.5336 27.1274 26.0271C25.3877 29.0349 22.1498 31.0676 18.4341 31.1042C18.3996 31.1052 18.3646 31.1052 18.3301 31.1052C14.5707 31.1052 11.2887 29.0628 9.53268 26.0271C8.66844 24.5336 8.17383 22.7989 8.17383 20.949C8.17383 19.099 8.66844 17.3643 9.53268 15.8709C10.9637 13.3968 13.4084 11.5824 16.2988 10.9959C16.9234 10.8689 17.5688 10.7998 18.2295 10.7937C18.263 10.7927 18.2965 10.7927 18.3301 10.7927" stroke="black" stroke-width="0.8" stroke-linecap="round" stroke-linejoin="round"/>
<path d="M13.5196 13.9935C14.6052 12.2195 16.269 10.7927 18.3301 10.7927C22.2131 10.7927 24.9316 15.7297 24.9316 20.949C24.9316 25.308 22.6601 31.1052 18.3301 31.1052C14.65 31.1052 11.7285 26.5079 11.7285 20.949C11.7285 19.8116 11.8445 18.8376 12.0556 17.7823" stroke="black" stroke-width="0.8" stroke-linecap="round" stroke-linejoin="round"/>
<path d="M20.8691 20.949C20.8691 22.7989 20.7452 24.5336 20.5294 26.0271C20.0902 29.0628 19.2695 31.1052 18.3301 31.1052C17.3906 31.1052 16.57 29.0628 16.1307 26.0271C15.9149 24.5336 15.791 22.7989 15.791 20.949C15.791 19.099 15.9149 17.3643 16.1307 15.8709C16.57 12.8351 17.3906 10.7927 18.3301 10.7927C19.2695 10.7927 20.0902 12.8351 20.5294 15.8709C20.7452 17.3643 20.8691 19.099 20.8691 20.949Z" stroke="black" stroke-width="0.8" stroke-linecap="round" stroke-linejoin="round"/>
<path d="M8.17383 20.949H28.4863" stroke="black" stroke-width="0.8" stroke-linecap="round" stroke-linejoin="round"/>
<path d="M16.4004 15.8708H27.1274" stroke="black" stroke-width="0.8" stroke-linecap="round" stroke-linejoin="round"/>
<path d="M9.53125 26.0271H27.1259" stroke="black" stroke-width="0.8" stroke-linecap="round" stroke-linejoin="round"/>
<path d="M16.2988 11.2825V9.47212C16.2988 8.91099 16.7533 8.45649 17.3145 8.45649H19.3457C19.9068 8.45649 20.3613 8.91099 20.3613 9.47212V11.2825" stroke="black" stroke-width="0.8" stroke-linecap="round" stroke-linejoin="round"/>
<path d="M18.3301 8.37354V6.12088" stroke="black" stroke-width="0.8" stroke-linecap="round" stroke-linejoin="round"/>
<path d="M6.85352 11.3005V13.3318" stroke="black" stroke-width="0.8" stroke-linecap="round" stroke-linejoin="round"/>
<path d="M5.83789 12.3162H7.86914" stroke="black" stroke-width="0.8" stroke-linecap="round" stroke-linejoin="round"/>
<path d="M14.7754 15.8708H16.4004" stroke="black" stroke-width="0.8" stroke-linecap="round" stroke-linejoin="round"/>
<path d="M9.53125 15.8708H10.7114" stroke="black" stroke-width="0.8" stroke-linecap="round" stroke-linejoin="round"/>
</g>
</g>
</svg>
