<svg width="37" height="37" viewBox="0 0 37 37" fill="none" xmlns="http://www.w3.org/2000/svg">
<rect x="0.476562" y="0.327881" width="36" height="36" fill="white"/>
<path d="M23.5603 17.4922C23.9848 10.917 17.2239 10.3425 13.7999 12.5553C9.54933 18.7197 11.8513 19.5098 12.0285 21.0903C12.2056 22.6709 23.0297 25.7112 23.5603 17.4922Z" fill="#FFE700"/>
<mask id="mask0_17515_16615" style="mask-type:luminance" maskUnits="userSpaceOnUse" x="5" y="5" width="27" height="27">
<path d="M5.47656 5.32788H31.4766V31.3279H5.47656V5.32788Z" fill="white"/>
</mask>
<g mask="url(#mask0_17515_16615)">
<path d="M5.85742 21.9338H31.0957" stroke="black" stroke-width="0.8" stroke-miterlimit="10" stroke-linecap="round" stroke-linejoin="round"/>
<path d="M23.3967 16.6747C23.2391 15.7158 22.3339 15.0663 21.375 15.224C20.4162 15.3816 19.7666 16.2867 19.9243 17.2456C19.7666 16.2867 18.8615 15.6372 17.9026 15.7949C16.9438 15.9525 16.2942 16.8577 16.4519 17.8166C16.2942 16.8577 15.3891 16.2082 14.4302 16.3658C13.4713 16.5235 12.8218 17.4286 12.9794 18.3875C12.8218 17.4286 11.9167 16.7791 10.9578 16.9368C9.99891 17.0944 9.34937 17.9995 9.50699 18.9584C9.34937 17.9995 8.44424 17.35 7.48534 17.5077C6.52644 17.6653 5.87695 18.5705 6.03462 19.5294L5.97572 19.5391C5.18485 14.7291 8.44297 10.1888 13.2529 9.39789C18.0629 8.60708 22.6032 11.8652 23.394 16.6752L23.3967 16.6747Z" stroke="black" stroke-width="0.8" stroke-miterlimit="10" stroke-linecap="round" stroke-linejoin="round"/>
<path d="M14.3965 16.3707L15.8683 25.3223" stroke="black" stroke-width="0.8" stroke-miterlimit="10" stroke-linecap="round" stroke-linejoin="round"/>
<path d="M9.42552 14.6857C9.23733 15.9046 9.22773 17.2577 9.42938 18.6621C9.46249 18.757 9.48834 18.8557 9.5052 18.9583C9.34757 17.9993 9.99706 17.0942 10.956 16.9365C11.9149 16.7789 12.82 17.4284 12.9776 18.3873C12.82 17.4284 13.4695 16.5233 14.4284 16.3657C15.3872 16.208 16.2924 16.8575 16.4501 17.8164C16.2924 16.8575 16.942 15.9524 17.9008 15.7947C18.7437 15.6561 19.5448 16.1413 19.8334 16.912C18.9617 12.2778 16.0625 8.93733 13.2544 9.39721C13.2536 9.39736 13.2528 9.39746 13.252 9.39761C11.734 9.64746 10.5464 10.9581 9.87935 12.8473" stroke="black" stroke-width="0.8" stroke-miterlimit="10" stroke-linecap="round" stroke-linejoin="round"/>
<path d="M13.3004 9.39017C13.2952 9.39098 13.2901 9.39169 13.2849 9.39251C12.3443 9.5642 12.2017 13.4813 12.9564 18.1973C12.9073 17.3115 13.5326 16.5128 14.4278 16.3656C15.3867 16.208 16.2918 16.8575 16.4495 17.8164C16.4395 17.756 16.4329 17.6959 16.4292 17.636C15.6354 12.9272 14.247 9.26002 13.3004 9.39017Z" stroke="black" stroke-width="0.8" stroke-miterlimit="10" stroke-linecap="round" stroke-linejoin="round"/>
<path d="M23.3938 16.6743C23.3875 16.6362 23.3797 16.5987 23.3711 16.5616C23.3778 16.5993 23.385 16.6369 23.3912 16.6748L23.3938 16.6743Z" stroke="black" stroke-width="0.8" stroke-miterlimit="10" stroke-linecap="round" stroke-linejoin="round"/>
<path d="M28.982 9.549C28.982 10.5035 28.2082 11.2773 27.2537 11.2773C26.2991 11.2773 25.5254 10.5035 25.5254 9.549C25.5254 8.59447 26.2991 7.82066 27.2537 7.82066C28.2082 7.82066 28.982 8.59447 28.982 9.549Z" stroke="black" stroke-width="0.8" stroke-miterlimit="10" stroke-linecap="round" stroke-linejoin="round"/>
<path d="M27.2539 5.70882V6.6106" stroke="black" stroke-width="0.8" stroke-miterlimit="10" stroke-linecap="round" stroke-linejoin="round"/>
<path d="M27.2539 12.4874V13.3892" stroke="black" stroke-width="0.8" stroke-miterlimit="10" stroke-linecap="round" stroke-linejoin="round"/>
<path d="M29.9697 6.83353L29.332 7.47119" stroke="black" stroke-width="0.8" stroke-miterlimit="10" stroke-linecap="round" stroke-linejoin="round"/>
<path d="M25.1748 11.627L24.5371 12.2646" stroke="black" stroke-width="0.8" stroke-miterlimit="10" stroke-linecap="round" stroke-linejoin="round"/>
<path d="M31.0932 9.54883H30.1914" stroke="black" stroke-width="0.8" stroke-miterlimit="10" stroke-linecap="round" stroke-linejoin="round"/>
<path d="M24.3139 9.54883H23.4121" stroke="black" stroke-width="0.8" stroke-miterlimit="10" stroke-linecap="round" stroke-linejoin="round"/>
<path d="M29.9697 12.2646L29.332 11.627" stroke="black" stroke-width="0.8" stroke-miterlimit="10" stroke-linecap="round" stroke-linejoin="round"/>
<path d="M25.1748 7.47095L24.5371 6.83329" stroke="black" stroke-width="0.8" stroke-miterlimit="10" stroke-linecap="round" stroke-linejoin="round"/>
<path d="M7.21359 27.7043C7.70374 27.7043 7.70455 26.9426 7.21359 26.9426C6.72345 26.9426 6.72269 27.7043 7.21359 27.7043Z" fill="black"/>
<path d="M12.4753 29.8303C12.9654 29.8303 12.9662 29.0686 12.4753 29.0686C11.9852 29.0686 11.9844 29.8303 12.4753 29.8303Z" fill="black"/>
<path d="M13.7976 26.949C14.2877 26.949 14.2885 26.1873 13.7976 26.1873C13.3075 26.1873 13.3066 26.949 13.7976 26.949Z" fill="black"/>
<path d="M23.8913 31.3279C24.3815 31.3279 24.3823 30.5662 23.8913 30.5662C23.4012 30.5662 23.4004 31.3279 23.8913 31.3279Z" fill="black"/>
<path d="M28.4069 29.21C28.8971 29.21 28.8979 28.4482 28.4069 28.4482C27.9168 28.4482 27.916 29.21 28.4069 29.21Z" fill="black"/>
<path d="M20.2441 25.3223H23.1751" stroke="black" stroke-width="0.8" stroke-miterlimit="10" stroke-linecap="round" stroke-linejoin="round"/>
<path d="M22.4316 23.7649H28.9823" stroke="black" stroke-width="0.8" stroke-miterlimit="10" stroke-linecap="round" stroke-linejoin="round"/>
<path d="M26.209 26.6427C27.5788 26.3074 29.3941 26.2111 31.0843 27.6296" stroke="black" stroke-width="0.8" stroke-miterlimit="10" stroke-linecap="round" stroke-linejoin="round"/>
<path d="M5.84961 25.9577C7.38996 23.8596 10.3488 22.9286 12.8147 23.7662C15.7268 24.7555 17.8102 27.8592 20.8823 28.0107C21.9035 28.0611 22.8905 27.7666 23.8634 27.4225" stroke="black" stroke-width="0.8" stroke-miterlimit="10" stroke-linecap="round" stroke-linejoin="round"/>
</g>
<path d="M5.85742 30.9307H31.0957" stroke="black" stroke-width="0.8" stroke-miterlimit="10" stroke-linecap="round" stroke-linejoin="round"/>
</svg>
