<svg width="124" height="102" viewBox="0 0 124 102" fill="none" xmlns="http://www.w3.org/2000/svg">
<path d="M121.8 74.77H2V53.2C2 48.06 6.17 43.89 11.31 43.89H112.49C117.63 43.89 121.8 48.06 121.8 53.2V74.77Z" fill="#FECD1A"/>
<path d="M114.03 43.88H9.76953V14.76C9.76953 7.70999 15.4895 1.98999 22.5395 1.98999H101.28C108.33 1.98999 114.05 7.70999 114.05 14.76V43.88H114.03Z" fill="#FC852D"/>
<path d="M88.3902 43.88H35.4102V37.01C35.4102 33.08 38.6002 29.89 42.5302 29.89H81.2702C85.2002 29.89 88.3902 33.08 88.3902 37.01V43.88Z" fill="#FFF8CD"/>
<path d="M2 74.77H121.81V87.71H2V74.77Z" fill="#FC852D"/>
<path d="M16.4595 99.5799C13.1795 99.5799 10.5195 96.9199 10.5195 93.6399V87.7H22.3895V93.6399C22.3895 96.9299 19.7395 99.5799 16.4595 99.5799Z" fill="#FECD1A"/>
<path d="M107.34 99.5799C104.06 99.5799 101.4 96.9199 101.4 93.6399V87.7H113.27V93.6399C113.28 96.9299 110.62 99.5799 107.34 99.5799Z" fill="#FECD1A"/>
<path d="M116.03 42.46V14.76C116.03 6.62 109.41 0 101.27 0H95.67C94.57 0 93.67 0.9 93.67 2C93.67 3.1 94.57 4 95.67 4H101.27C107.2 4 112.03 8.83 112.03 14.76V41.88H90.39V37.01C90.39 31.98 86.3 27.89 81.27 27.89H42.53C37.5 27.89 33.41 31.98 33.41 37.01V41.88H11.77V14.76C11.77 8.83 16.6 4 22.53 4H70.87C71.97 4 72.87 3.1 72.87 2C72.87 0.9 71.97 0 70.87 0H22.53C14.39 0 7.77 6.62 7.77 14.76V42.46C3.26 43.95 0 48.2 0 53.2V74.77V87.71C0 88.81 0.9 89.71 2 89.71H8.53V93.65C8.53 98.03 12.09 101.59 16.47 101.59C20.85 101.59 24.41 98.03 24.41 93.65V89.71H99.42V93.65C99.42 98.03 102.98 101.59 107.36 101.59C111.74 101.59 115.3 98.03 115.3 93.65V89.71H121.83C122.93 89.71 123.83 88.81 123.83 87.71V74.77V53.2C123.8 48.2 120.54 43.95 116.03 42.46ZM37.41 37.01C37.41 34.19 39.71 31.89 42.53 31.89H81.27C84.09 31.89 86.39 34.19 86.39 37.01V41.88H37.41V37.01ZM4 53.2C4 49.17 7.28 45.89 11.31 45.89H35.41H88.39H112.49C116.52 45.89 119.8 49.17 119.8 53.2V72.77H4V53.2ZM20.4 93.65C20.4 95.82 18.63 97.59 16.46 97.59C14.29 97.59 12.52 95.82 12.52 93.65V89.71H20.39V93.65H20.4ZM111.28 93.65C111.28 95.82 109.51 97.59 107.34 97.59C105.17 97.59 103.4 95.82 103.4 93.65V89.71H111.27V93.65H111.28ZM119.8 85.71H113.27H101.4H22.4H10.52H4V76.77H119.8V85.71Z" fill="#151E59"/>
<path d="M82.0391 4H84.4991C85.5991 4 86.4991 3.1 86.4991 2C86.4991 0.9 85.5991 0 84.4991 0H82.0391C80.9391 0 80.0391 0.9 80.0391 2C80.0391 3.1 80.9391 4 82.0391 4Z" fill="#151E59"/>
</svg>
