<svg width="37" height="37" viewBox="0 0 37 37" fill="none" xmlns="http://www.w3.org/2000/svg">
<rect x="0.544922" y="0.0917969" width="36" height="36" fill="white"/>
<path d="M27.0682 21.3811C27.4927 14.8059 18.9803 15.343 15.5563 17.5559C11.3058 23.7202 15.3783 26.755 15.5554 28.3356C15.7325 29.9161 26.5375 29.6001 27.0682 21.3811Z" fill="#FFE700"/>
<path d="M7.81696 23.4197H6.53574C6.22134 23.4197 5.96484 23.6983 5.96484 24.038V25.587C5.96484 25.9268 6.22134 26.2053 6.53574 26.2053H7.81696" stroke="black" stroke-width="0.8" stroke-miterlimit="10" stroke-linecap="round" stroke-linejoin="round"/>
<path d="M21.267 12.2742C19.9206 9.20038 16.1717 11.7638 14.1505 10.1101C13.9548 11.7315 12.1975 11.8249 11.6607 12.2742L11.4012 10.1133C11.1654 8.15217 11.9261 6.66603 13.6967 6.32784C14.4975 4.66294 18.1099 4.71934 19.7812 6.26183C21.5903 7.93156 21.531 10.0715 21.267 12.2742Z" stroke="black" stroke-width="0.8" stroke-miterlimit="10" stroke-linecap="round" stroke-linejoin="round"/>
<path d="M11.6594 12.2743H10.7592C10.3411 12.2743 10 12.6414 10 13.0955V13.5528C10 14.4351 10.8082 14.9133 11.6401 14.9214H11.8151" stroke="black" stroke-width="0.8" stroke-miterlimit="10" stroke-linecap="round" stroke-linejoin="round"/>
<path d="M21.2665 12.2743H22.1652C22.5834 12.2743 22.9244 12.6414 22.9244 13.0955V13.5528C22.9244 14.4351 22.1163 14.9133 21.2844 14.9214H21.1094" stroke="black" stroke-width="0.8" stroke-miterlimit="10" stroke-linecap="round" stroke-linejoin="round"/>
<path d="M14.1462 10.1104C13.3513 9.34876 13.335 7.23781 13.6924 6.32808" stroke="black" stroke-width="0.8" stroke-miterlimit="10" stroke-linecap="round" stroke-linejoin="round"/>
<path d="M11.6562 12.2744V13.8555C11.6562 15.7265 13.2756 18.0742 15.2553 18.8728C15.6913 19.0483 16.0754 19.1353 16.4594 19.1353C16.8434 19.1353 17.226 19.0483 17.662 18.8728C19.6417 18.0742 21.2625 15.7265 21.2625 13.8555V12.2744" stroke="black" stroke-width="0.8" stroke-miterlimit="10" stroke-linecap="round" stroke-linejoin="round"/>
<path d="M8.79492 22.5696C9.0974 21.6743 9.67578 20.9224 10.6263 20.6052L14.0074 19.4732V18.1352" stroke="black" stroke-width="0.8" stroke-miterlimit="10" stroke-linecap="round" stroke-linejoin="round"/>
<path d="M21.7954 20.4377L18.9141 19.4733V18.1352" stroke="black" stroke-width="0.8" stroke-miterlimit="10" stroke-linecap="round" stroke-linejoin="round"/>
<path d="M18.5664 13.1532V13.5605" stroke="black" stroke-width="0.8" stroke-miterlimit="10" stroke-linecap="round" stroke-linejoin="round"/>
<path d="M14.4922 13.1532V13.5605" stroke="black" stroke-width="0.8" stroke-miterlimit="10" stroke-linecap="round" stroke-linejoin="round"/>
<path d="M15.7539 16.3578C16.1824 16.8231 16.8765 16.8231 17.3035 16.3578" stroke="black" stroke-width="0.8" stroke-miterlimit="10" stroke-linecap="round" stroke-linejoin="round"/>
<path d="M10.8035 28.1587H8.81044C8.26475 28.1587 7.81836 27.674 7.81836 27.0831V23.0255C7.81836 22.7743 8.00674 22.5698 8.23807 22.5698H11.3759C11.6072 22.5698 11.7956 22.7743 11.7956 23.0255V27.0831C11.7956 27.674 11.3492 28.1587 10.8035 28.1587Z" stroke="black" stroke-width="0.8" stroke-miterlimit="10" stroke-linecap="round" stroke-linejoin="round"/>
<path d="M14.0098 19.4733V19.8307C14.0098 22.2234 18.9167 22.2234 18.9167 19.8307V19.4733" stroke="black" stroke-width="0.8" stroke-miterlimit="10" stroke-linecap="round" stroke-linejoin="round"/>
<path d="M27.4643 19.4733H30.7193C31.1864 19.4733 31.652 20.032 31.5216 20.7211L30.1158 28.1584H20.3359L21.7892 20.4684C21.89 19.9338 22.286 19.4733 22.8821 19.4733H25.6017" stroke="black" stroke-width="0.8" stroke-miterlimit="10" stroke-linecap="round" stroke-linejoin="round"/>
<path d="M20.3354 28.1587H18.0354C17.5416 28.1587 17.1367 27.7191 17.1367 27.1829V26.6017C17.1367 26.3843 17.2999 26.2056 17.5 26.2056H20.7046L20.3354 28.1587Z" stroke="black" stroke-width="0.8" stroke-miterlimit="10" stroke-linecap="round" stroke-linejoin="round"/>
<path d="M18.5649 31.092H31.3061C31.4366 31.092 31.5448 30.9761 31.5448 30.8329V28.4192C31.5448 28.2759 31.4366 28.1584 31.3061 28.1584H5.78368C5.65169 28.1584 5.54492 28.2759 5.54492 28.4192V30.8329C5.54492 30.9761 5.65169 31.092 5.78368 31.092H16.7543" stroke="black" stroke-width="0.8" stroke-miterlimit="10" stroke-linecap="round" stroke-linejoin="round"/>
<path d="M26.3335 22.9463C25.8041 22.9463 25.3518 23.4004 25.3236 23.9592C25.2955 24.5179 25.7018 24.9719 26.2327 24.9719C26.7621 24.9719 27.2144 24.5179 27.2411 23.9592C27.2693 23.4004 26.8629 22.9463 26.3335 22.9463Z" stroke="black" stroke-width="0.8" stroke-miterlimit="10" stroke-linecap="round" stroke-linejoin="round"/>
</svg>
