<svg width="36" height="36" viewBox="0 0 36 36" fill="none" xmlns="http://www.w3.org/2000/svg">
<rect width="36" height="36" fill="white"/>
<path d="M13.0282 24.6353C7.79115 20.6369 13.787 14.5707 17.7044 13.4421C25.1445 14.2855 24.7583 19.3497 25.8338 20.5213C26.9093 21.693 19.5745 29.6333 13.0282 24.6353Z" fill="#FFE700"/>
<g clip-path="url(#clip0_23385_1901)">
<path d="M10.637 17.6338L10.4814 19.1874M13.6614 19.1874L13.5058 17.6339" stroke="black" stroke-width="0.8" stroke-miterlimit="22.9256"/>
<path d="M13.6612 19.1874L15.3379 19.6551M23.2866 18.4117L23.1004 19.949L20.9857 20.7179M26.0942 18.4117L26.2804 19.949L28.7925 20.8623C29.7366 21.2056 30.6192 21.6848 30.6192 22.689V29.1452H28.7149M27.9532 29.1452H27.1915M26.4297 29.1452H22.8308M13.1692 29.1452H5.38086V21.9273C5.38086 20.9228 6.23993 20.3706 7.20751 20.1007L7.78672 19.9391M8.52056 19.7343L10.4813 19.1873" stroke="black" stroke-width="0.8" stroke-miterlimit="22.9256"/>
<path fill-rule="evenodd" clip-rule="evenodd" d="M23.167 12.2822C23.167 13.1201 23.8525 13.8057 24.6904 13.8057H27.7373V15.71C27.7373 17.3857 26.3662 18.7568 24.6904 18.7568C23.0146 18.7568 21.6436 17.3857 21.6436 15.71V13.8057C22.4814 13.8057 23.167 13.1201 23.167 12.2822Z" stroke="black" stroke-width="0.8" stroke-miterlimit="22.9256"/>
<path d="M8.2627 13.0439V10.251C8.2627 9.83203 8.60547 9.48926 9.02441 9.48926C9.02441 8.65055 10.1573 7.96582 12.0712 7.96582C13.9852 7.96582 15.1181 8.65055 15.1181 9.48926C15.537 9.48926 15.8798 9.83203 15.8798 10.251V13.0439M15.1181 13.0439V14.9482C15.1181 16.624 13.747 17.9951 12.0712 17.9951C10.3955 17.9951 9.02441 16.624 9.02441 14.9482V13.0439" stroke="black" stroke-width="0.8" stroke-miterlimit="22.9256"/>
<path d="M15.1182 14.9482H15.8799C16.2988 14.9482 16.6416 14.6055 16.6416 14.1865V13.8057C16.6416 13.3867 16.2988 13.0439 15.8799 13.0439H15.1181H12.0713C11.2334 13.0439 10.5479 12.3584 10.5479 11.5205C10.5479 12.3584 9.8623 13.0439 9.02441 13.0439H8.2627C7.8438 13.0439 7.50098 13.3868 7.50098 13.8057V14.1865C7.50098 14.6055 7.84375 14.9482 8.2627 14.9482H9.02441" stroke="black" stroke-width="0.8" stroke-miterlimit="22.9256"/>
<path d="M20.1201 18.9188V13.1575C20.1201 10.6439 22.1768 8.58723 24.6904 8.58723C27.204 8.58723 29.2606 10.644 29.2606 13.1575V21.0494" stroke="black" stroke-width="0.8" stroke-miterlimit="22.9256"/>
<path d="M25.4521 10.8724V10.1107M26.9756 11.6341V10.8724" stroke="black" stroke-width="0.8" stroke-miterlimit="22.9256"/>
<path d="M16.869 25.561L16.7463 26.7861M19.2539 26.7861L19.1312 25.561" stroke="black" stroke-width="0.8" stroke-miterlimit="22.9256"/>
<path d="M20.4026 21.9417V23.4433C20.4026 24.7648 19.3214 25.8459 18 25.8459C16.6786 25.8459 15.5974 24.7648 15.5974 23.4433V21.9417" stroke="black" stroke-width="0.8" stroke-miterlimit="22.9256"/>
<path d="M15.6422 23.9047H14.6746C14.3443 23.9047 14.074 23.6344 14.074 23.304V22.5423C14.074 22.212 14.3443 21.9417 14.6746 21.9417H21.3253C21.6556 21.9417 21.9259 22.212 21.9259 22.5423V23.304C21.9259 23.6343 21.6555 23.9047 21.3253 23.9047H20.3578" stroke="black" stroke-width="0.8" stroke-miterlimit="22.9256"/>
<path d="M14.9968 21.9417V21.0407C14.9968 19.389 16.3483 18.0375 18.0001 18.0375C19.6518 18.0375 21.0033 19.389 21.0033 21.0407V21.9417" stroke="black" stroke-width="0.8" stroke-miterlimit="22.9256"/>
<path d="M16.7462 26.7861L14.9958 27.3185C14.0349 27.6108 13.1692 28.1407 13.1692 29.1452V30.6191H22.8308V29.1452C22.8308 28.1406 21.9652 27.6108 21.0042 27.3185L19.2538 26.7861" stroke="black" stroke-width="0.8" stroke-miterlimit="22.9256"/>
<path d="M19.2537 26.7861C19.2537 27.3388 18.6923 27.7868 17.9999 27.7868C17.3074 27.7868 16.7461 27.3388 16.7461 26.7861" stroke="black" stroke-width="0.8" stroke-miterlimit="22.9256"/>
<path d="M13.6614 19.1874C13.6614 19.7401 12.9495 20.1881 12.0714 20.1881C11.1933 20.1881 10.4814 19.7401 10.4814 19.1874" stroke="black" stroke-width="0.8" stroke-miterlimit="22.9256"/>
<path d="M26.2805 19.949C26.2805 20.5017 25.5687 20.9498 24.6905 20.9498C23.8124 20.9498 23.1006 20.5017 23.1006 19.949" stroke="black" stroke-width="0.8" stroke-miterlimit="22.9256"/>
<path fill-rule="evenodd" clip-rule="evenodd" d="M18 9.46047L16.4698 8.33226C14.399 6.80537 16.3565 4.28728 18 5.90101C19.6435 4.28728 21.601 6.80537 19.5301 8.33226L18 9.46047Z" stroke="black" stroke-width="0.8" stroke-miterlimit="22.9256"/>
</g>
<defs>
<clipPath id="clip0_23385_1901">
<rect width="26" height="26" fill="white" transform="translate(5 5)"/>
</clipPath>
</defs>
</svg>
