<svg width="13" height="13" viewBox="0 0 13 13" fill="none" xmlns="http://www.w3.org/2000/svg">
<path d="M6.3791 0.687866L5.07887 1.62631L4.50035 1.86162H2.8378L2.06673 3.83429L0.451172 4.79715L1.1993 6.69938L0.451172 8.55463L1.92165 9.58794L2.18673 10.0811L2.8378 11.7015L4.7166 11.5137L6.04184 12.6879H6.7165L8.13812 11.5137L10.0176 11.7015L10.7163 9.75233L12.1861 8.55463L11.656 6.69938L12.4512 4.96154L10.7163 3.83429L10.0176 1.86162L8.40317 2.04949L7.84898 1.86162L6.3791 0.687866Z" fill="#BBECAE"/>
<path d="M11.8726 6.66842C11.8203 6.5614 11.8203 6.43867 11.8726 6.33167L12.3574 5.33979C12.6274 4.78752 12.4135 4.12928 11.8705 3.84117L10.8952 3.32371C10.79 3.2679 10.7179 3.16858 10.6973 3.0513L10.5066 1.96385C10.4003 1.35839 9.84028 0.95153 9.23175 1.03763L8.13861 1.19226C8.02062 1.20891 7.90395 1.17098 7.81836 1.08818L7.02488 0.320577C6.58306 -0.106846 5.89092 -0.106872 5.44913 0.320577L4.65562 1.08826C4.57001 1.17108 4.45334 1.20894 4.33537 1.19233L3.24224 1.03771C2.6335 0.951556 2.07364 1.35846 1.96743 1.96392L1.7767 3.05132C1.75611 3.16863 1.68397 3.26793 1.57878 3.32376L0.603532 3.84122C0.0605311 4.1293 -0.153358 4.7876 0.116593 5.33987L0.601424 6.33172C0.653729 6.43874 0.653729 6.56148 0.601424 6.66848L0.116568 7.66033C-0.153384 8.2126 0.0605056 8.87084 0.603506 9.15895L1.57875 9.67641C1.68397 9.73222 1.75611 9.83154 1.7767 9.94882L1.96743 11.0363C2.06412 11.5874 2.53674 11.974 3.07992 11.9739C3.13341 11.9739 3.1877 11.9702 3.24226 11.9625L4.3354 11.8078C4.45329 11.7911 4.57003 11.8291 4.65565 11.9119L5.44913 12.6795C5.67007 12.8933 5.95348 13.0001 6.23699 13.0001C6.52043 13 6.80401 12.8932 7.02486 12.6795L7.81836 11.9119C7.90398 11.8291 8.02067 11.7913 8.13861 11.8078L9.23175 11.9625C9.84056 12.0486 10.4003 11.6417 10.5066 11.0362L10.6973 9.94885C10.7179 9.83154 10.79 9.73224 10.8952 9.67641L11.8705 9.15895C12.4135 8.87087 12.6274 8.21257 12.3574 7.6603L11.8726 6.66842ZM11.519 8.49659L10.5438 9.01405C10.2329 9.17906 10.0196 9.47252 9.9588 9.81926L9.76807 10.9067C9.73214 11.1115 9.54276 11.2491 9.33676 11.22L8.24363 11.0654C7.89502 11.016 7.55006 11.1282 7.29704 11.373L6.50354 12.1406C6.35409 12.2851 6.11992 12.2851 5.97042 12.1406L5.17694 11.3729C4.9631 11.1661 4.68355 11.054 4.39171 11.054C4.33824 11.054 4.28434 11.0578 4.23036 11.0654L3.13722 11.22C2.93141 11.2491 2.74187 11.1115 2.70591 10.9067L2.51516 9.8192C2.45432 9.47247 2.24109 9.17898 1.93013 9.01402L0.954885 8.49656C0.77116 8.39909 0.698797 8.17639 0.790126 7.98954L1.27498 6.99766C1.42956 6.6814 1.42956 6.31867 1.27498 6.00241L0.790126 5.01053C0.698797 4.82368 0.77116 4.60098 0.954885 4.50351L1.93013 3.98605C2.24106 3.82104 2.45432 3.52757 2.51513 3.18084L2.70586 2.09342C2.74182 1.88857 2.93118 1.75095 3.13717 1.78005L4.23031 1.93467C4.57879 1.98401 4.92387 1.87186 5.17689 1.62712L5.97039 0.859515C6.11984 0.714942 6.35402 0.714942 6.50352 0.859515L7.29699 1.62712C7.55001 1.87188 7.89504 1.98401 8.24358 1.93467L9.33671 1.78005C9.54255 1.75092 9.73209 1.88857 9.76802 2.09342L9.95875 3.18086C10.0196 3.5276 10.2328 3.82109 10.5438 3.98605L11.519 4.50351C11.7027 4.60098 11.7751 4.82368 11.6838 5.01053L11.1989 6.00238C11.0443 6.31862 11.0443 6.6814 11.1989 6.99764L11.6838 7.98949C11.7751 8.17639 11.7028 8.39912 11.519 8.49659Z" fill="black"/>
<path d="M8.97502 3.76068C8.82865 3.61428 8.59125 3.61428 8.44485 3.76068L3.49652 8.70903C3.35012 8.85543 3.35012 9.09281 3.49652 9.23921C3.56972 9.31241 3.66567 9.34902 3.7616 9.34902C3.85752 9.34902 3.9535 9.31243 4.02667 9.23921L8.975 4.29088C9.12145 4.14446 9.12145 3.90711 8.97502 3.76068Z" fill="black"/>
<path d="M4.73594 3.12598C3.97799 3.12598 3.36133 3.74264 3.36133 4.50059C3.36133 5.25855 3.97799 5.87521 4.73594 5.87521C5.4939 5.87521 6.11056 5.25855 6.11056 4.50059C6.11056 3.74264 5.4939 3.12598 4.73594 3.12598ZM4.73594 5.1254C4.39142 5.1254 4.11113 4.84512 4.11113 4.50057C4.11113 4.15604 4.39142 3.87576 4.73594 3.87576C5.08047 3.87576 5.36078 4.15604 5.36078 4.50057C5.36075 4.84512 5.08047 5.1254 4.73594 5.1254Z" fill="black"/>
<path d="M7.73594 7.12488C6.97799 7.12488 6.36133 7.74154 6.36133 8.49949C6.36133 9.25745 6.97799 9.87411 7.73594 9.87411C8.4939 9.87411 9.11056 9.25745 9.11056 8.49949C9.11056 7.74154 8.4939 7.12488 7.73594 7.12488ZM7.73594 9.1243C7.39142 9.1243 7.11111 8.84402 7.11111 8.49949C7.11111 8.15497 7.39139 7.87468 7.73594 7.87468C8.08047 7.87468 8.36075 8.15497 8.36075 8.49949C8.36075 8.84402 8.08047 9.1243 7.73594 9.1243Z" fill="black"/>
</svg>
