<svg width="13" height="13" viewBox="0 0 13 13" fill="none" xmlns="http://www.w3.org/2000/svg">
<g clip-path="url(#clip0_25291_5593)">
<path d="M10.7 8.99717C11.2957 8.99717 11.7523 9.40596 11.7523 9.88686C11.7523 10.1178 11.6606 10.3392 11.4973 10.5025C11.3341 10.6658 11.1126 10.7575 10.8817 10.7575L10.3597 10.752C10.3597 10.752 11.1983 10.9519 11.1983 11.6211C11.1983 12.0788 10.7989 12.4375 10.3412 12.4375H4.19347C4.02206 12.4375 3.85285 12.3989 3.69836 12.3247L2.70703 11.7171V5.3314C2.70703 5.3314 5.94715 4.94318 7.14067 1.81391C7.37738 1.19323 8.22393 1.2433 8.48703 1.83359C8.76546 2.4582 8.85202 3.16807 8.50788 4.08553C7.99245 5.45962 6.92784 5.60808 6.92784 5.60808L11.0341 5.53369C11.265 5.53369 11.4864 5.62541 11.6497 5.78869C11.813 5.95197 11.9047 6.17342 11.9047 6.40433C11.9047 6.88518 11.518 7.25845 11.0372 7.25845L11.1986 7.25966C11.4296 7.25966 11.651 7.35139 11.8143 7.51466C11.9775 7.67794 12.0693 7.89938 12.0693 8.13028C12.0693 8.36119 11.9775 8.58263 11.8143 8.7459C11.651 8.90918 11.4296 9.0009 11.1986 9.0009L10.7 8.99717Z" fill="#FFD9B3"/>
<path d="M4.21641 3.24032L3.98262 2.20849L3 1.81616L3.90898 1.27493L3.9785 0.219238L4.7743 0.916516L5.79982 0.656414L5.38248 1.62865L5.94676 2.52359L4.8932 2.42711L4.21641 3.24032Z" fill="#FFDF40"/>
<path d="M3.97866 0.219238L4.8932 2.42711L4.21641 3.24032L3.98262 2.20849L3 1.81616L3.90898 1.27493L3.97866 0.219238Z" fill="#FFBE40"/>
<path d="M9.47461 2.64603L10.0389 1.75108L9.62157 0.778901L10.647 1.039L11.4427 0.341675L11.5122 1.39737L12.4212 1.93859L11.4386 2.33093L11.2048 3.36275L10.528 2.54954L9.47461 2.64603Z" fill="#FFDF40"/>
<path d="M9.47461 2.64603L10.0389 1.75108L9.62157 0.778901L10.647 1.039L11.4427 0.341675L10.5282 2.54954L9.47461 2.64603Z" fill="#FFBE40"/>
<path d="M2.70695 5.33138V11.7171C2.70695 11.9992 2.59491 12.2697 2.39548 12.4691C2.19604 12.6685 1.92555 12.7806 1.64351 12.7806C1.36147 12.7806 1.09098 12.6685 0.891551 12.4691C0.692118 12.2697 0.580078 11.9992 0.580078 11.7171V5.33138C0.580078 5.04934 0.692118 4.77885 0.891551 4.57942C1.09098 4.37998 1.36147 4.26794 1.64351 4.26794C1.92555 4.26794 2.19604 4.37998 2.39548 4.57942C2.59491 4.77885 2.70695 5.04934 2.70695 5.33138Z" fill="#66CCFF"/>
<path d="M2.70674 5.33143V11.7172C2.70678 11.8777 2.67049 12.0361 2.60059 12.1805C2.53069 12.325 2.429 12.4517 2.30313 12.5513C2.17726 12.6509 2.03048 12.7206 1.87381 12.7554C1.71713 12.7901 1.55462 12.789 1.39846 12.752C1.63146 12.6968 1.83903 12.5646 1.98758 12.3769C2.13613 12.1891 2.21697 11.9567 2.21703 11.7172V5.33148C2.21698 5.09203 2.13614 4.85961 1.98758 4.67182C1.83902 4.48403 1.63144 4.35187 1.39844 4.29671C1.55459 4.25971 1.7171 4.25854 1.87378 4.29329C2.03045 4.32804 2.17722 4.39781 2.30309 4.49736C2.42896 4.59692 2.53066 4.72368 2.60056 4.86813C2.67046 5.01259 2.70675 5.171 2.70671 5.33148L2.70674 5.33143Z" fill="#4DA6FF"/>
<path d="M8.58455 8.51308H11.9808C11.9092 8.65944 11.7979 8.78275 11.6597 8.869C11.5214 8.95525 11.3617 9.00097 11.1988 9.00096L10.8712 8.99842L10.8418 8.99743H10.7399L10.7 8.99713C10.7047 8.99713 10.7093 8.99738 10.714 8.99743H8.58455C8.23272 8.99753 8.23272 8.51308 8.58455 8.51308ZM2.70703 11.0629V11.7172L3.69836 12.3247C3.85285 12.399 4.02206 12.4376 4.19347 12.4376H10.3412C10.5021 12.438 10.6599 12.3939 10.7971 12.31C10.9344 12.2262 11.0457 12.1059 11.1187 11.9626H3.901L2.70703 11.0629ZM8.66621 7.25782H11.0372H11.0626C11.2216 7.255 11.3766 7.20825 11.5106 7.12273C11.6446 7.03722 11.7523 6.91628 11.8218 6.77332H8.66619C8.31432 6.77337 8.31435 7.25782 8.66621 7.25782ZM8.25267 10.7522H10.3602H10.3598H10.3714H10.6939L10.8422 10.7572L10.8816 10.7576C11.045 10.7576 11.205 10.7117 11.3435 10.6251C11.482 10.5384 11.5933 10.4146 11.6647 10.2678H8.25267C7.90084 10.2678 7.90084 10.7522 8.25267 10.7522Z" fill="#FFBB99"/>
<path d="M11.664 7.23546C11.7947 7.14005 11.9008 7.01492 11.9735 6.8704C12.0463 6.72589 12.0836 6.56613 12.0824 6.40434C12.0821 6.12639 11.9715 5.85992 11.775 5.66338C11.5785 5.46684 11.312 5.35628 11.034 5.35597H11.0308L7.76367 5.41518C8.08582 5.17564 8.43556 4.78432 8.67425 4.14796C8.99816 3.28445 8.99024 2.52605 8.64932 1.76124C8.5737 1.58824 8.44826 1.44169 8.289 1.34029C8.12974 1.23888 7.94388 1.18722 7.75514 1.19188C7.39604 1.20175 7.10422 1.41059 6.97455 1.75047C6.49739 3.00159 5.6336 3.95415 4.40726 4.58168C3.92061 4.83095 3.40249 5.0133 2.86699 5.12377C2.815 4.81699 2.64967 4.54093 2.40376 4.35029C2.15785 4.15965 1.84929 4.06834 1.53924 4.09445C1.22918 4.12056 0.940244 4.26219 0.72968 4.49127C0.519116 4.72036 0.402288 5.02018 0.402344 5.33134V11.7171C0.402345 12.0205 0.513478 12.3134 0.714739 12.5404C0.916001 12.7674 1.19345 12.9128 1.49465 12.9492C1.79586 12.9856 2.09995 12.9104 2.34947 12.7378C2.59898 12.5652 2.77664 12.3072 2.84886 12.0125L3.6055 12.4762C3.61064 12.4793 3.61593 12.4822 3.62137 12.4848C3.79998 12.5704 3.99547 12.6149 4.19352 12.6152H10.3411C10.9118 12.6152 11.376 12.1692 11.376 11.621C11.3782 11.4894 11.3528 11.3587 11.3016 11.2374C11.2503 11.1161 11.1743 11.0069 11.0783 10.9167C11.3178 10.8706 11.5337 10.7426 11.6891 10.5547C11.8446 10.3668 11.9297 10.1306 11.93 9.8868C11.93 9.58483 11.7848 9.31172 11.5517 9.11746C11.7551 9.04444 11.931 8.91047 12.0554 8.73381C12.1798 8.55715 12.2467 8.3464 12.247 8.13032C12.247 7.72552 12.0456 7.41692 11.664 7.23546ZM2.52921 11.7172C2.52921 11.9521 2.4359 12.1774 2.2698 12.3435C2.1037 12.5096 1.87842 12.6029 1.64351 12.6029C1.40861 12.6029 1.18333 12.5096 1.01723 12.3435C0.851127 12.1774 0.757812 11.9521 0.757812 11.7172V5.33144C0.757812 5.09654 0.851127 4.87125 1.01723 4.70515C1.18333 4.53905 1.40861 4.44574 1.64351 4.44574C1.87842 4.44574 2.1037 4.53905 2.2698 4.70515C2.4359 4.87125 2.52921 5.09654 2.52921 5.33144V11.7172ZM11.1999 8.82318L8.44944 8.81945C8.40231 8.81945 8.3571 8.83818 8.32377 8.87151C8.29044 8.90484 8.27171 8.95005 8.27171 8.99718C8.27171 9.04432 8.29044 9.08953 8.32377 9.12286C8.3571 9.15619 8.40231 9.17492 8.44944 9.17492H10.7168C11.1913 9.18228 11.5745 9.49875 11.5745 9.88675C11.5744 10.0702 11.5017 10.2461 11.3721 10.3759C11.2426 10.5058 11.0669 10.5791 10.8835 10.5797L8.13663 10.5742C8.08949 10.5742 8.04429 10.5929 8.01095 10.6262C7.97762 10.6596 7.9589 10.7048 7.9589 10.7519C7.9589 10.799 7.97762 10.8443 8.01095 10.8776C8.04429 10.9109 8.08949 10.9296 8.13663 10.9296H10.3431C10.4643 10.9556 10.5806 11.0007 10.6877 11.0633C10.9116 11.1973 11.0204 11.3797 11.0204 11.621C11.0204 11.9672 10.7093 12.2597 10.341 12.2597H4.19344C4.05162 12.2595 3.91156 12.2282 3.78311 12.1681L2.88468 11.6175V5.48287C3.46645 5.36954 4.02936 5.17486 4.55683 4.90455C5.45988 4.44498 6.66999 3.54666 7.30664 1.87727C7.38441 1.67339 7.5514 1.55309 7.76484 1.54719C7.88323 1.54459 7.99971 1.57732 8.09941 1.64122C8.19911 1.70511 8.27751 1.79726 8.3246 1.90591C8.62502 2.57993 8.63035 3.25268 8.34138 4.02308C7.87252 5.27301 6.9417 5.42625 6.90321 5.43201C6.8583 5.4382 6.81746 5.46132 6.78903 5.49664C6.76061 5.53196 6.74675 5.5768 6.7503 5.62199C6.75385 5.66718 6.77453 5.70931 6.80812 5.73976C6.84171 5.77021 6.88566 5.78667 6.93098 5.78578L11.0355 5.71138C11.2189 5.712 11.3947 5.78525 11.5242 5.91511C11.6538 6.04496 11.7267 6.22085 11.7269 6.40429C11.7269 6.77365 11.4395 7.06496 11.0673 7.07996C11.0574 7.07826 8.53697 7.0772 8.53697 7.0772C8.48983 7.0772 8.44462 7.09592 8.41129 7.12925C8.37796 7.16258 8.35923 7.20779 8.35923 7.25493C8.35923 7.30207 8.37796 7.34728 8.41129 7.38061C8.44462 7.41394 8.48983 7.43266 8.53697 7.43266C8.53697 7.43266 11.0215 7.43569 11.0308 7.43604C11.0659 7.43736 11.8915 7.47618 11.8915 8.13027C11.8914 8.31378 11.8186 8.48975 11.6889 8.61964C11.5593 8.74952 11.3834 8.82271 11.1999 8.82318ZM2.93453 1.98122L3.83028 2.33893L4.04344 3.27962C4.05077 3.31197 4.067 3.34162 4.0903 3.36522C4.1136 3.38882 4.14305 3.40543 4.1753 3.41317C4.20755 3.42091 4.24132 3.41947 4.27279 3.40902C4.30427 3.39856 4.33219 3.37951 4.3534 3.35402L4.9704 2.61261L5.93092 2.70056C5.96393 2.70357 5.99713 2.69729 6.02676 2.68243C6.05639 2.66757 6.08127 2.64472 6.09859 2.61646C6.11592 2.5882 6.125 2.55566 6.1248 2.52251C6.1246 2.48937 6.11514 2.45694 6.09749 2.42888L5.58302 1.61291L5.9635 0.726595C5.97659 0.696118 5.98089 0.662586 5.97591 0.629793C5.97093 0.597 5.95688 0.566255 5.93534 0.541033C5.9138 0.515812 5.88563 0.497121 5.85402 0.487076C5.8224 0.477031 5.78861 0.476031 5.75646 0.484191L4.82156 0.721339L4.09615 0.0856085C4.07121 0.0637437 4.04066 0.0492904 4.00794 0.0438829C3.97522 0.0384753 3.94165 0.0423292 3.911 0.0550088C3.88036 0.0676884 3.85388 0.0886879 3.83455 0.115633C3.81522 0.142578 3.80381 0.174394 3.80161 0.207483L3.73814 1.16994L2.90952 1.66346C2.88102 1.68042 2.85785 1.70502 2.8426 1.73448C2.82736 1.76393 2.82066 1.79705 2.82327 1.83011C2.82587 1.86317 2.83767 1.89484 2.85733 1.92155C2.87699 1.94825 2.90373 1.96892 2.93453 1.98122ZM4.00042 1.42771C4.02517 1.41295 4.04595 1.39241 4.06099 1.36784C4.07603 1.34326 4.08487 1.31541 4.08675 1.28666L4.13261 0.590323L4.65743 1.05027C4.67909 1.06928 4.70505 1.08273 4.73307 1.08945C4.76109 1.09618 4.79033 1.09599 4.81826 1.08889L5.49471 0.917304L5.21953 1.55857C5.20816 1.58505 5.20341 1.61389 5.20567 1.64261C5.20793 1.67134 5.21714 1.69908 5.2325 1.72346L5.6047 2.31376L4.90976 2.25013C4.88107 2.24751 4.85216 2.25189 4.82554 2.26292C4.79891 2.27395 4.77537 2.29128 4.75694 2.31343L4.31054 2.84984L4.15632 2.16924C4.14995 2.14113 4.13685 2.115 4.11813 2.09309C4.09942 2.07117 4.07566 2.05414 4.04889 2.04345L3.4008 1.78467L4.00042 1.42771ZM12.5121 1.78589L11.6833 1.29245L11.6198 0.330146C11.6177 0.297056 11.6062 0.26524 11.5869 0.238295C11.5676 0.21135 11.5411 0.19035 11.5105 0.177671C11.4798 0.164991 11.4462 0.161137 11.4135 0.166545C11.3808 0.171952 11.3502 0.186406 11.3253 0.208271L10.6001 0.843773L9.66515 0.606624C9.633 0.598465 9.59921 0.599464 9.5676 0.60951C9.53599 0.619555 9.50782 0.638245 9.48628 0.663467C9.46473 0.688688 9.45068 0.719434 9.4457 0.752227C9.44073 0.78502 9.44502 0.818551 9.45811 0.849028L9.83859 1.73534L9.32408 2.55124C9.30642 2.57929 9.29696 2.61173 9.29676 2.64487C9.29657 2.67802 9.30564 2.71056 9.32297 2.73882C9.34029 2.76708 9.36518 2.78993 9.3948 2.80479C9.42443 2.81965 9.45763 2.82593 9.49064 2.82292L10.4511 2.73494L11.0681 3.47635C11.0893 3.50184 11.1173 3.5209 11.1487 3.53135C11.1802 3.5418 11.214 3.54324 11.2462 3.5355C11.2785 3.52776 11.3079 3.51115 11.3312 3.48755C11.3545 3.46395 11.3708 3.4343 11.3781 3.40195L11.5915 2.46136L12.4872 2.10368C12.518 2.09139 12.5448 2.07072 12.5644 2.04401C12.5841 2.01731 12.5959 1.98563 12.5985 1.95257C12.6011 1.9195 12.5944 1.88637 12.5792 1.85692C12.5639 1.82746 12.5407 1.80286 12.5122 1.78589H12.5121ZM11.3727 2.16589C11.346 2.17657 11.3222 2.1936 11.3035 2.21552C11.2848 2.23743 11.2717 2.26357 11.2653 2.29167L11.1111 2.97214L10.6647 2.43587C10.648 2.41583 10.6271 2.39971 10.6035 2.38864C10.5799 2.37757 10.5542 2.37184 10.5281 2.37183C10.5227 2.37183 10.5173 2.37206 10.5119 2.37257L9.81693 2.4362L10.1891 1.84584C10.2045 1.82147 10.2137 1.79372 10.216 1.765C10.2182 1.73628 10.2135 1.70743 10.2021 1.68095L9.92682 1.03974L10.6033 1.2113C10.6312 1.21838 10.6604 1.21857 10.6884 1.21184C10.7164 1.20511 10.7424 1.19167 10.7641 1.17268L11.2889 0.712706L11.3348 1.40912C11.3366 1.43786 11.3455 1.46571 11.3605 1.49028C11.3756 1.51485 11.3963 1.53539 11.4211 1.55014L12.0207 1.90713L11.3727 2.16589Z" fill="black"/>
</g>
<defs>
<clipPath id="clip0_25291_5593">
<rect width="13" height="13" fill="white"/>
</clipPath>
</defs>
</svg>
