<svg width="36" height="36" viewBox="0 0 36 36" fill="none" xmlns="http://www.w3.org/2000/svg">
<rect width="36" height="36" fill="white"/>
<path d="M24.0475 18.5021C24.472 11.9269 17.9094 11.0518 14.4854 13.2646C10.2349 19.429 12.5369 20.219 12.714 21.7996C12.8912 23.3802 23.5169 26.7212 24.0475 18.5021Z" fill="#FFE700"/>
<mask id="mask0_17977_8480" style="mask-type:luminance" maskUnits="userSpaceOnUse" x="5" y="5" width="26" height="26">
<path d="M5 5H31V31H5V5Z" fill="white"/>
</mask>
<g mask="url(#mask0_17977_8480)">
<path d="M18 5.76172C24.7543 5.76172 30.2383 11.2457 30.2383 18C30.2383 24.7543 24.7543 30.2383 18 30.2383C11.2457 30.2383 5.76172 24.7543 5.76172 18C5.76172 11.2457 11.2457 5.76172 18 5.76172Z" stroke="black" stroke-width="0.8" stroke-miterlimit="10" stroke-linecap="round" stroke-linejoin="round"/>
<path d="M10.6562 18.0003C10.6562 17.0991 11.3869 16.3685 12.288 16.3685H16.3674V12.2891C16.3674 11.3879 17.0981 10.6573 17.9992 10.6573C18.9003 10.6573 19.631 11.3879 19.631 12.2891V16.3685H23.7104C24.6115 16.3685 25.3421 17.0991 25.3421 18.0003C25.3421 18.9015 24.6115 19.6321 23.7104 19.6321H19.631V23.7115C19.631 24.6127 18.9003 25.3433 17.9992 25.3433C17.0981 25.3433 16.3674 24.6127 16.3674 23.7115V19.6321H12.288C11.3869 19.6321 10.6562 18.9015 10.6562 18.0003Z" stroke="black" stroke-width="0.8" stroke-miterlimit="10" stroke-linecap="round" stroke-linejoin="round"/>
</g>
</svg>
