<svg width="37" height="37" viewBox="0 0 37 37" fill="none" xmlns="http://www.w3.org/2000/svg">
<rect x="0.884766" y="0.391602" width="36" height="36" fill="white"/>
<path d="M23.9393 19.5891C24.3638 13.0139 15.8514 13.551 12.4274 15.7639C8.17687 21.9282 12.2494 24.963 12.4265 26.5436C12.6036 28.1241 23.4086 27.8081 23.9393 19.5891Z" fill="#FFE700"/>
<path d="M17.2308 12.918L21.2169 15.4995C21.5467 15.7131 21.6175 15.7873 21.9631 15.8677L26.4479 16.9109C27.0505 17.0846 27.7007 16.7802 27.8926 16.2347C28.0845 15.6891 27.7484 15.1004 27.1458 14.9265L22.7477 13.9083L19.7503 11.9184C19.477 11.4327 18.8279 10.1628 17.5488 10.1628C16.1978 10.1628 14.7891 10.2702 14.7891 11.3542V13.4635M14.7891 14.2483V19.3003M17.5284 22.8231L19.5655 24.7437L19.7418 29.7257V31.3916M24.3151 31.3916V30.5586C24.3151 30.1005 23.9011 29.7257 23.3951 29.7257H19.7418M22.4752 29.7257L22.4985 27.0996M22.5055 26.315L22.5288 23.6889L18.809 19.3004L19.6639 14.4938" stroke="black" stroke-width="0.8" stroke-miterlimit="22.9256"/>
<path d="M14.7888 19.3003L14.0701 23.0996L11.1744 27.1771M11.1744 27.1771L9.82422 28.3089L12.9312 31.3474L13.6063 30.7815C13.9776 30.4703 14.0001 29.9406 13.6564 29.6044L11.1744 27.1771ZM13.0313 28.9932L17.0771 24.0639L18.8087 19.3003" stroke="black" stroke-width="0.8" stroke-miterlimit="22.9256"/>
<path d="M14.7891 19.3003H18.809" stroke="black" stroke-width="0.8" stroke-miterlimit="22.9256"/>
<path fill-rule="evenodd" clip-rule="evenodd" d="M17.081 5.3916H18.0172C18.9706 5.3916 19.7506 6.09784 19.7506 6.96102V7.77722C19.7506 9.0893 18.9982 10.1628 17.5491 10.1628C16.1 10.1628 15.3477 9.0893 15.3477 7.77722V6.96102C15.3477 6.09784 16.1277 5.3916 17.081 5.3916Z" stroke="black" stroke-width="0.8" stroke-miterlimit="22.9256"/>
<path d="M15.3477 7.77734H21.4839" stroke="black" stroke-width="0.8" stroke-miterlimit="22.9256"/>
<path d="M14.7887 11.354C14.7887 10.3829 13.9112 9.58838 12.8387 9.58838C11.7661 9.58838 10.8887 10.3829 10.8887 11.354V14.248" stroke="black" stroke-width="0.8" stroke-miterlimit="22.9256"/>
<path d="M14.7882 17.9269H10.8882C10.4117 17.9269 10.0215 17.5737 10.0215 17.1422V15.0328C10.0215 14.6012 10.4115 14.248 10.8882 14.248H11.7548C12.2315 14.248 12.6215 14.6013 12.6215 15.0328V17.1422C12.6215 17.5736 12.2315 17.9269 11.7548 17.9269" stroke="black" stroke-width="0.8" stroke-miterlimit="22.9256"/>
<path d="M14.7891 16.3574C16.3006 16.3574 17.6611 14.6957 18.2264 13.5625" stroke="black" stroke-width="0.8" stroke-miterlimit="22.9256"/>
<path d="M14.7891 17.927C16.6297 17.927 18.7424 16.341 19.6639 14.4937" stroke="black" stroke-width="0.8" stroke-miterlimit="22.9256"/>
<path d="M26.4473 12.595V14.765M26.4473 16.9108V31.3916" stroke="black" stroke-width="0.8" stroke-miterlimit="22.9256"/>
<path d="M5.88477 31.3916H31.8848" stroke="black" stroke-width="0.8" stroke-miterlimit="22.9256"/>
<path d="M12.8379 11.6538V10.8691" stroke="black" stroke-width="0.8" stroke-miterlimit="22.9256"/>
<path d="M25.1465 14.4639V16.6083" stroke="black" stroke-width="0.8" stroke-miterlimit="22.9256"/>
</svg>
